<?xml version="1.0" encoding="UTF-8" standalone="no"?>
<svg
   xmlns:dc="http://purl.org/dc/elements/1.1/"
   xmlns:cc="http://creativecommons.org/ns#"
   xmlns:rdf="http://www.w3.org/1999/02/22-rdf-syntax-ns#"
   xmlns:svg="http://www.w3.org/2000/svg"
   xmlns="http://www.w3.org/2000/svg"
   xmlns:sodipodi="http://sodipodi.sourceforge.net/DTD/sodipodi-0.dtd"
   xmlns:inkscape="http://www.inkscape.org/namespaces/inkscape"
   version="1.1"
   id="Artwork"
   x="0px"
   y="0px"
   width="40"
   height="40"
   viewBox="0 0 39.999999 39.999999"
   enable-background="new 0 0 165.52107 105.9651"
   xml:space="preserve"
   sodipodi:docname="apple_pay_icon_dark.svg"
   inkscape:version="1.0.2-2 (e86c870879, 2021-01-15)"><metadata
   id="metadata39"><rdf:RDF><cc:Work
       rdf:about=""><dc:format>image/svg+xml</dc:format><dc:type
         rdf:resource="http://purl.org/dc/dcmitype/StillImage" /><dc:title /></cc:Work></rdf:RDF></metadata><defs
   id="defs37">
	
	
	

		
		
	</defs><sodipodi:namedview
   pagecolor="#ffffff"
   bordercolor="#666666"
   borderopacity="1"
   objecttolerance="10"
   gridtolerance="10"
   guidetolerance="10"
   inkscape:pageopacity="0"
   inkscape:pageshadow="2"
   inkscape:window-width="1979"
   inkscape:window-height="1212"
   id="namedview35"
   showgrid="false"
   inkscape:zoom="6.9362458"
   inkscape:cx="7.6274878"
   inkscape:cy="14.447966"
   inkscape:window-x="0"
   inkscape:window-y="0"
   inkscape:window-maximized="0"
   inkscape:current-layer="Artwork"
   showborder="false"
   inkscape:document-rotation="0" />
<g
   id="g872"><path
     id="XMLID_4_"
     d="M 36.418198,7.1960003 H 3.5819411 c -0.1367584,0 -0.2737585,0 -0.4102729,7.975e-4 -0.1153976,8.217e-4 -0.230527,0.0021 -0.3456564,0.00524 -0.2510903,0.00679 -0.5043315,0.021605 -0.7522801,0.066168 C 1.8218197,7.3135463 1.5874043,7.3874959 1.3587163,7.5039303 1.133895,7.6182622 0.9280686,7.7678048 0.7496978,7.9462505 0.57124967,8.1246962 0.42170713,8.3301843 0.30739941,8.5552472 0.19094086,8.7839352 0.11694292,9.0184231 0.07192066,9.2705284 0.02711831,9.5185496 0.01220514,9.7717424 0.00543851,10.022567 0.0023452,10.137696 0.00101845,10.252826 2.66874e-4,10.367931 c -7.9749575e-4,0.136807 -5.3166383e-4,0.273517 -5.3166383e-4,0.410565 v 18.44337 c 0,0.137049 -2.6583192e-4,0.27352 5.3166383e-4,0.410592 7.51576e-4,0.115105 0.002078326,0.230235 0.005171636,0.345364 0.00676663,0.250605 0.0216798,0.503798 0.06648215,0.751746 0.04502226,0.252202 0.1190202,0.486594 0.23547875,0.715306 0.11430772,0.225063 0.26385026,0.430817 0.44229839,0.608996 0.1783708,0.178736 0.3841972,0.328255 0.6090185,0.442296 0.228688,0.116749 0.4631034,0.190723 0.7150154,0.236035 0.2479486,0.04427 0.5011898,0.05935 0.7522801,0.06614 0.1151294,0.0026 0.2302588,0.0042 0.3456564,0.0047 C 3.3081826,32.804 3.4451827,32.804 3.5819411,32.804 H 36.418198 c 0.136517,0 0.273519,0 0.410007,-9.67e-4 0.115132,-4.83e-4 0.230264,-0.0022 0.34592,-0.0047 0.250559,-0.0068 0.503751,-0.02187 0.752307,-0.06614 0.251573,-0.04531 0.486037,-0.119286 0.714749,-0.236035 0.225063,-0.114041 0.430285,-0.26356 0.609024,-0.442296 0.178155,-0.178179 0.327695,-0.383933 0.442296,-0.608996 0.116722,-0.228712 0.190647,-0.463104 0.235452,-0.715306 0.04483,-0.247948 0.05938,-0.501141 0.06617,-0.751746 0.0031,-0.115129 0.0047,-0.230259 0.0052,-0.345364 9.66e-4,-0.137072 9.66e-4,-0.273541 9.66e-4,-0.410592 v -18.44337 c 0,-0.137048 0,-0.273758 -9.66e-4,-0.410565 -4.84e-4,-0.115105 -0.0022,-0.230235 -0.0052,-0.345364 C 39.98733,9.7717424 39.972782,9.5185496 39.927953,9.2705284 39.88315,9.0184231 39.809223,8.7839352 39.692501,8.5552472 39.5779,8.3301843 39.42836,8.1246962 39.250205,7.9462505 39.071466,7.7678048 38.866244,7.6182622 38.641181,7.5039303 38.412469,7.3874959 38.178005,7.3135463 37.926432,7.2682099 c -0.248553,-0.044563 -0.501746,-0.059377 -0.752307,-0.066168 -0.115656,-0.00314 -0.230788,-0.00442 -0.34592,-0.00524 -0.136488,-7.975e-4 -0.27349,-7.975e-4 -0.410007,-7.975e-4 z"
     style="stroke-width:0.241665" /><path
     id="XMLID_3_"
     fill="#ffffff"
     d="m 36.418198,8.0495624 0.403941,7.734e-4 c 0.109426,7.733e-4 0.218855,0.00196 0.328888,0.00495 0.191401,0.00517 0.415299,0.015539 0.624001,0.052949 0.181419,0.032673 0.333569,0.082359 0.479585,0.1566958 0.144154,0.073249 0.276226,0.1692383 0.391544,0.2843918 0.115758,0.1159269 0.211871,0.2482145 0.286086,0.3939629 0.07392,0.1448784 0.123295,0.296306 0.155775,0.4790533 0.03731,0.2064306 0.04763,0.4309377 0.05288,0.6235204 0.0029,0.108702 0.0044,0.217403 0.0049,0.32869 9.67e-4,0.134583 9.67e-4,0.269094 9.67e-4,0.403943 v 18.44337 c 0,0.13485 2.1e-5,0.269119 -9.67e-4,0.406578 -4.83e-4,0.108677 -0.0019,0.217378 -0.0049,0.326273 -0.0052,0.192293 -0.01554,0.416679 -0.05331,0.62555 -0.03202,0.180235 -0.08137,0.331686 -0.155703,0.47729 -0.074,0.145385 -0.169966,0.277528 -0.285218,0.39273 -0.115973,0.115999 -0.247611,0.211699 -0.393478,0.285624 -0.144926,0.07397 -0.296815,0.123615 -0.476445,0.155947 -0.212929,0.03794 -0.446209,0.04838 -0.6219,0.05314 -0.110537,0.0025 -0.220543,0.004 -0.33323,0.0045 -0.134295,9.67e-4 -0.26907,9.67e-4 -0.403387,9.67e-4 H 3.5819411 c -0.00179,0 -0.00353,0 -0.00534,0 -0.1327709,0 -0.2658077,0 -0.4009953,-9.67e-4 -0.1102236,-4.83e-4 -0.2202055,-0.0019 -0.3265383,-0.0044 -0.1797024,-0.0049 -0.413127,-0.01527 -0.6243183,-0.053 C 2.0435742,31.859547 1.8916851,31.809909 1.7448493,31.734969 1.6003599,31.661696 1.4688191,31.566093 1.3527955,31.449876 1.2376661,31.334916 1.1419908,31.203184 1.068017,31.057581 0.99397075,30.912122 0.94442935,30.760212 0.91185527,30.577827 c -0.0376539,-0.208461 -0.0479972,-0.431953 -0.0531664,-0.622941 -0.002951,-0.109354 -0.004183,-0.218683 -0.004884,-0.327384 l -5.3166e-4,-0.320908 2.416e-5,-0.08473 v -18.44337 l -2.416e-5,-0.08473 5.0749e-4,-0.32023 c 7.25e-4,-0.109354 0.001957,-0.218683 0.004908,-0.32794 C 0.8638577,9.8544121 0.8742012,9.6308233 0.9121668,9.4206228 0.94445351,9.2398853 0.99397075,9.0879744 1.0684037,8.941791 1.1417975,8.7972993 1.237642,8.6653983 1.3533779,8.5496889 1.4686523,8.4343662 1.6006234,8.3384976 1.7460334,8.2645479 1.8912985,8.1905742 2.0434752,8.1409119 2.2246517,8.1083113 c 0.2087506,-0.037507 0.4327985,-0.04785 0.6246808,-0.053046 0.1093778,-0.00297 0.2187555,-0.00416 0.3273116,-0.00491 l 0.405297,-7.975e-4 H 36.418198"
     style="fill:#000000;fill-opacity:1;stroke:#ffffff;stroke-width:0.241665;stroke-opacity:1" /><g
     id="g8"
     transform="matrix(0.24166538,0,0,0.24166538,-3.0829003e-4,7.1960003)"
     style="fill:#ffffff;fill-opacity:1">
			<path
   d="m 45.1862,35.64053 c 1.41724,-1.77266 2.37897,-4.15282 2.12532,-6.58506 -2.07464,0.10316 -4.60634,1.36871 -6.07207,3.14276 -1.31607,1.5192 -2.4809,3.99902 -2.17723,6.3293 2.32889,0.20201 4.65563,-1.16408 6.12398,-2.887"
   id="path4"
   style="fill:#ffffff;fill-opacity:1" />
			<path
   d="m 47.28506,38.98252 c -3.38211,-0.20146 -6.25773,1.91951 -7.87286,1.91951 -1.61602,0 -4.08931,-1.81799 -6.76438,-1.76899 -3.48177,0.05114 -6.71245,2.01976 -8.4793,5.15079 -3.63411,6.2636 -0.95904,15.55471 2.57494,20.65606 1.71618,2.5238 3.78447,5.30269 6.50976,5.20287 2.57494,-0.10104 3.58421,-1.66732 6.71416,-1.66732 3.12765,0 4.03679,1.66732 6.76252,1.61681 2.82665,-0.05054 4.59381,-2.52506 6.30997,-5.05132 1.96878,-2.877 2.77473,-5.65498 2.82542,-5.80748 -0.0507,-0.05051 -5.45058,-2.12204 -5.50065,-8.33358 -0.05098,-5.20101 4.23951,-7.6749 4.44144,-7.82832 C 52.3832,39.4881 48.5975,39.08404 47.28506,38.98252"
   id="path6"
   style="fill:#ffffff;fill-opacity:1" />
		</g><g
     id="g16"
     transform="matrix(0.24166538,0,0,0.24166538,-3.0829003e-4,7.1960003)"
     style="fill:#ffffff;fill-opacity:1">
			<path
   d="m 76.73385,31.94381 c 7.35096,0 12.4697,5.06708 12.4697,12.44437 0,7.40363 -5.22407,12.49704 -12.65403,12.49704 H 68.4106 V 69.8284 H 62.53023 V 31.9438 H 76.73385 Z M 68.41059,51.9493 h 6.74732 c 5.11975,0 8.0336,-2.75636 8.0336,-7.53479 0,-4.77792 -2.91385,-7.50845 -8.00727,-7.50845 h -6.77365 z"
   id="path10"
   style="fill:#ffffff;fill-opacity:1" />
			<path
   d="m 90.73997,61.97864 c 0,-4.8311 3.70182,-7.79761 10.26583,-8.16526 l 7.56061,-0.44614 v -2.12639 c 0,-3.07185 -2.07423,-4.90959 -5.53905,-4.90959 -3.28251,0 -5.33041,1.57492 -5.82871,4.04313 h -5.35574 c 0.31499,-4.98859 4.56777,-8.66407 11.3941,-8.66407 6.69466,0 10.97377,3.54432 10.97377,9.08388 v 19.03421 h -5.43472 v -4.54194 h -0.13065 c -1.60125,3.07185 -5.09341,5.01441 -8.71623,5.01441 -5.4084,0 -9.18921,-3.3605 -9.18921,-8.32224 z m 17.82644,-2.49404 v -2.17905 l -6.8,0.41981 c -3.38683,0.23649 -5.30306,1.73291 -5.30306,4.09579 0,2.41504 1.99523,3.99046 5.04075,3.99046 3.96413,0 7.06231,-2.73053 7.06231,-6.32701 z"
   id="path12"
   style="fill:#ffffff;fill-opacity:1" />
			<path
   d="m 119.34167,79.9889 v -4.5946 c 0.4193,0.10483 1.36425,0.10483 1.83723,0.10483 2.6252,0 4.04313,-1.10245 4.90908,-3.9378 0,-0.05267 0.49931,-1.68025 0.49931,-1.70658 l -9.97616,-27.64562 h 6.14268 l 6.98432,22.47371 h 0.10432 l 6.98433,-22.47371 h 5.9857 l -10.34483,29.06304 c -2.36186,6.69517 -5.0924,8.84789 -10.81577,8.84789 -0.47297,0 -1.8909,-0.05267 -2.31021,-0.13116 z"
   id="path14"
   style="fill:#ffffff;fill-opacity:1" />
		</g></g>
<g
   id="g22">
</g>
<g
   id="g24">
</g>
<g
   id="g26">
</g>
<g
   id="g28">
</g>
<g
   id="g30">
</g>
<g
   id="g32">
</g>
</svg>
