<?xml version="1.0" encoding="UTF-8" standalone="no"?>
<svg
   viewBox="0 0 32 32"
   version="1.1"
   id="svg4"
   sodipodi:docname="password_icon.svg"
   width="32"
   height="32"
   inkscape:version="1.2.2 (732a01da63, 2022-12-09)"
   xmlns:inkscape="http://www.inkscape.org/namespaces/inkscape"
   xmlns:sodipodi="http://sodipodi.sourceforge.net/DTD/sodipodi-0.dtd"
   xmlns="http://www.w3.org/2000/svg"
   xmlns:svg="http://www.w3.org/2000/svg">
  <defs
     id="defs8" />
  <sodipodi:namedview
     id="namedview6"
     pagecolor="#ffffff"
     bordercolor="#000000"
     borderopacity="0.25"
     inkscape:showpageshadow="2"
     inkscape:pageopacity="0.0"
     inkscape:pagecheckerboard="0"
     inkscape:deskcolor="#d1d1d1"
     showgrid="false"
     showborder="false"
     inkscape:zoom="9.8333333"
     inkscape:cx="6.7118644"
     inkscape:cy="12"
     inkscape:window-width="2256"
     inkscape:window-height="1470"
     inkscape:window-x="-11"
     inkscape:window-y="-11"
     inkscape:window-maximized="1"
     inkscape:current-layer="svg4" />
  <path
     d="m 16,23.857143 c -1.585714,0 -2.857144,-1.285714 -2.857144,-2.857143 0,-1.585714 1.271429,-2.857142 2.857144,-2.857142 A 2.8571429,2.8571429 0 0 1 18.857143,21 2.8571429,2.8571429 0 0 1 16,23.857143 m 8.571428,4.285714 V 13.857142 H 7.4285716 V 28.142857 H 24.571428 m 0,-17.142857 a 2.8571429,2.8571429 0 0 1 2.857143,2.857142 V 28.142857 A 2.8571429,2.8571429 0 0 1 24.571428,31 H 7.4285716 C 5.8428573,31 4.5714287,29.714285 4.5714287,28.142857 V 13.857142 C 4.5714287,12.271428 5.8428573,11 7.4285716,11 H 8.8571431 V 8.1428572 A 7.1428572,7.1428572 0 0 1 16,1 7.1428572,7.1428572 0 0 1 23.142857,8.1428572 V 11 h 1.428571 M 16,3.8571429 A 4.2857143,4.2857143 0 0 0 11.714285,8.1428572 V 11 h 8.571429 V 8.1428572 A 4.2857143,4.2857143 0 0 0 16,3.8571429 Z"
     id="path2"
     style="stroke-width:1.42857" />
</svg>
